<svg width="31" height="31" viewBox="0 0 31 31" fill="none" xmlns="http://www.w3.org/2000/svg">
<circle cx="15.5" cy="15.5" r="15.5" fill="#E8E8E8"/>
<path d="M13.8068 18.6392V18.3977C13.8116 17.5691 13.8849 16.9086 14.027 16.4162C14.1738 15.9238 14.3868 15.526 14.6662 15.223C14.9455 14.92 15.2817 14.6454 15.6747 14.3991C15.9683 14.2098 16.2311 14.0133 16.4631 13.8097C16.6951 13.6061 16.8797 13.3812 17.017 13.1349C17.1544 12.884 17.223 12.6046 17.223 12.2969C17.223 11.9702 17.1449 11.6837 16.9886 11.4375C16.8324 11.1913 16.6217 11.0019 16.3565 10.8693C16.0961 10.7367 15.8073 10.6705 15.4901 10.6705C15.1823 10.6705 14.8911 10.7391 14.6165 10.8764C14.3419 11.009 14.117 11.2079 13.9418 11.473C13.7666 11.7334 13.6719 12.0578 13.6577 12.446H10.7599C10.7836 11.4991 11.0109 10.7178 11.4418 10.1023C11.8726 9.48201 12.4432 9.02036 13.1534 8.71733C13.8636 8.40956 14.6473 8.25568 15.5043 8.25568C16.4465 8.25568 17.2798 8.41193 18.0043 8.72443C18.7287 9.0322 19.2969 9.47964 19.7088 10.0668C20.1207 10.6539 20.3267 11.3617 20.3267 12.1903C20.3267 12.7443 20.2344 13.2367 20.0497 13.6676C19.8698 14.0937 19.6165 14.4725 19.2898 14.804C18.9631 15.1307 18.5772 15.4266 18.1321 15.6918C17.758 15.9143 17.4503 16.1463 17.2088 16.3878C16.9721 16.6293 16.7945 16.9086 16.6761 17.2259C16.5625 17.5431 16.5033 17.9337 16.4986 18.3977V18.6392H13.8068ZM15.2131 23.1847C14.7396 23.1847 14.3348 23.0189 13.9986 22.6875C13.6671 22.3513 13.5038 21.9489 13.5085 21.4801C13.5038 21.0161 13.6671 20.6184 13.9986 20.2869C14.3348 19.9555 14.7396 19.7898 15.2131 19.7898C15.6629 19.7898 16.0582 19.9555 16.3991 20.2869C16.7401 20.6184 16.9129 21.0161 16.9176 21.4801C16.9129 21.7926 16.83 22.0791 16.669 22.3395C16.5128 22.5952 16.3068 22.8011 16.0511 22.9574C15.7955 23.1089 15.5161 23.1847 15.2131 23.1847Z" fill="black"/>
</svg>
